<?xml version="1.0" encoding="utf-8"?>
<!-- Generator: Adobe Illustrator 21.0.0, SVG Export Plug-In . SVG Version: 6.00 Build 0)  -->
<svg xmlns="http://www.w3.org/2000/svg" xmlns:xlink="http://www.w3.org/1999/xlink" version="1.1" id="图层_1" x="0px" y="0px" viewBox="0 0 1024 1024" style="enable-background:new 0 0 1024 1024;" xml:space="preserve">
<style type="text/css">
	.st0{fill:#3171FF;}
	.st1{opacity:0.7;}
</style>
<g>
	<g>
		<g>
			<path class="st0" d="M839.3,98.6H184.7l-68.9,654.5h792.3L839.3,98.6z M671.5,581.1l-329.2-0.3c-18.2,0-54-28.4-54-93.9     c0-56,38.7-104.3,93.1-117.5c23.5-59.1,81.3-98.3,146.2-98.3c82.2,0,149.2,61.1,156.3,140.8c41.2,13.6,69.3,51.6,69.3,95.4     C753.1,562.5,697.1,581.1,671.5,581.1z"/>
		</g>
	</g>
	<g class="st1">
		<g>
			<path class="st0" d="M116,753.2v172.2h792V753.2H116z M666.9,856.5h-34.4v-34.4h34.4V856.5z M735.8,856.5h-34.4v-34.4h34.4V856.5     z M804.7,856.5h-34.4v-34.4h34.4V856.5z"/>
		</g>
	</g>
</g>
</svg>
